<svg id="Layer_1" data-name="Layer 1" xmlns="http://www.w3.org/2000/svg" xmlns:xlink="http://www.w3.org/1999/xlink" viewBox="0 0 472.61 545.72"><defs><style>.cls-1,.cls-11,.cls-12,.cls-2,.cls-3,.cls-4,.cls-5,.cls-6,.cls-7,.cls-8,.cls-9{fill:none;}.cls-11,.cls-12,.cls-2,.cls-3,.cls-4,.cls-5,.cls-6,.cls-7,.cls-8,.cls-9{stroke:#231916;stroke-miterlimit:10;}.cls-2{stroke-width:20px;}.cls-3{stroke-width:5px;}.cls-4{stroke-width:6px;}.cls-5{stroke-width:8px;}.cls-6{stroke-width:10px;}.cls-7{stroke-width:12px;}.cls-8{stroke-width:14px;}.cls-10{clip-path:url(#clip-path);}.cls-11{stroke-width:25px;}.cls-12{stroke-width:4px;}.cls-13{fill:#231916;}</style><clipPath id="clip-path" transform="translate(0 -2)"><rect class="cls-1" y="2" width="472.61" height="621.09"/></clipPath></defs><title>logo</title><polygon class="cls-2" points="90.55 192.63 236.3 445.09 382.06 192.63 90.55 192.63"/><polygon class="cls-3" points="197 191.57 236.3 219 275.61 191.57 197 191.57"/><polyline class="cls-4" points="151.78 194.5 236.3 253.48 323.49 192.63"/><polyline class="cls-5" points="81 184.36 236.3 292.75 391.61 184.36"/><polyline class="cls-6" points="126.96 255.7 236.3 332.01 345.64 255.71"/><polyline class="cls-7" points="164.94 321.47 236.3 371.28 307.68 321.47"/><polyline class="cls-8" points="202.9 387.24 236.3 410.55 269.71 387.23"/><path class="cls-9" d="M123.87,578" transform="translate(0 -2)"/><path class="cls-9" d="M61.71,578" transform="translate(0 -2)"/><path class="cls-9" d="M221.71,609.09" transform="translate(0 -2)"/><path class="cls-9" d="M163.71,609.09" transform="translate(0 -2)"/><path class="cls-9" d="M306.53,578" transform="translate(0 -2)"/><path class="cls-9" d="M254.71,578" transform="translate(0 -2)"/><path class="cls-9" d="M375.42,609.09" transform="translate(0 -2)"/><path class="cls-9" d="M328.42,609.09" transform="translate(0 -2)"/><path class="cls-9" d="M363.7,579" transform="translate(0 -2)"/><path class="cls-9" d="M405.29,579" transform="translate(0 -2)"/><g class="cls-10"><polygon class="cls-11" points="460.11 402.07 236.3 531.29 12.5 402.07 12.5 143.65 236.3 14.43 460.11 143.65 460.11 402.07"/><line class="cls-2" x1="382.06" y1="192.63" x2="460.11" y2="144.43"/><line class="cls-2" x1="12.5" y1="144.43" x2="90.54" y2="192.63"/></g><line class="cls-2" x1="236.3" y1="445.09" x2="236.3" y2="531.29"/><polygon class="cls-5" points="206.59 452.82 206.59 481.54 41.15 386.01 41.15 194.97 69.47 212.75 206.59 452.82"/><polyline class="cls-4" points="205.66 455.1 65.45 374.15 65.45 212.56"/><polyline class="cls-12" points="185.85 416.51 90.27 361.33 90.27 248.56"/><polyline class="cls-12" points="160.42 372 117.27 347.08 117.27 294.72"/><polygon class="cls-5" points="266.14 451.82 266.14 481.54 431.59 386.01 431.59 194.97 403.27 212.75 266.14 451.82"/><polyline class="cls-4" points="267.08 455.1 407.28 374.15 407.28 212.56"/><polyline class="cls-12" points="286.15 416.94 382.46 361.33 382.46 248.56"/><polyline class="cls-12" points="311.74 372.33 355.46 347.08 355.46 294.72"/><polygon class="cls-5" points="114.13 161.43 80.39 139.43 94.99 130.59 235.91 49.23 394.39 139.43 357.68 161.43 114.13 161.43"/><polyline class="cls-4" points="107.98 153.66 120.11 146.31 237.16 78.73 368.81 153.66"/><polyline class="cls-12" points="148.7 158.39 156.85 153.44 235.56 108 324.09 158.39"/><polyline class="cls-12" points="197.82 158.28 201.4 156.1 236.03 136.11 274.97 158.28"/><polygon class="cls-13" points="253.43 404.72 236.3 410.54 215.43 398.89 236.3 434.72 253.43 404.72"/></svg>